<?xml version="1.0" standalone="no"?>
<!DOCTYPE svg PUBLIC "-//W3C//DTD SVG 20010904//EN"
 "http://www.w3.org/TR/2001/REC-SVG-20010904/DTD/svg10.dtd">
<svg version="1.0" xmlns="http://www.w3.org/2000/svg"
 width="2002.000000pt" height="2002.000000pt" viewBox="0 0 2002.000000 2002.000000"
 preserveAspectRatio="xMidYMid meet">
<metadata>
Created by potrace 1.11, written by Peter Selinger 2001-2013
</metadata>
<g transform="translate(0.000000,2002.000000) scale(0.100000,-0.100000)"
fill="#000000" stroke="none">
<path d="M9545 20001 c-6 -5 -26 -18 -46 -29 -33 -18 -261 -150 -884 -510
-137 -79 -266 -153 -285 -164 -19 -11 -150 -87 -290 -168 -140 -81 -272 -157
-293 -169 -21 -12 -107 -61 -190 -110 -159 -92 -450 -260 -527 -303 -25 -14
-155 -90 -290 -168 -135 -78 -261 -151 -280 -162 -19 -11 -181 -105 -360 -208
-179 -103 -343 -198 -365 -210 -40 -23 -234 -135 -335 -194 -30 -18 -185 -108
-345 -200 -159 -92 -297 -171 -305 -176 -8 -5 -69 -40 -135 -78 -66 -38 -370
-213 -675 -389 -305 -176 -571 -330 -590 -341 -19 -11 -109 -62 -200 -115
l-165 -95 -1 -3806 -1 -3806 121 -71 c67 -39 146 -86 176 -103 30 -18 195
-113 365 -211 171 -98 407 -235 525 -303 118 -69 235 -136 259 -150 25 -14 68
-38 95 -55 28 -16 67 -39 86 -50 62 -35 568 -326 813 -469 131 -76 240 -138
241 -138 2 0 88 -49 191 -110 103 -61 189 -110 191 -110 3 0 30 -16 60 -35 30
-19 56 -35 58 -35 2 0 64 -36 139 -79 74 -43 154 -90 178 -104 24 -13 132 -75
239 -137 107 -62 213 -123 235 -135 22 -13 81 -46 130 -75 122 -71 336 -195
377 -219 18 -10 105 -60 193 -111 144 -84 230 -133 327 -189 18 -10 121 -69
228 -131 187 -108 220 -127 293 -168 17 -11 118 -69 222 -129 842 -489 851
-493 861 -483 5 4 29 19 54 33 25 13 101 57 170 97 69 40 143 83 165 95 22 13
123 71 225 130 102 59 201 116 220 127 189 108 650 374 670 387 14 8 34 21 45
26 18 10 980 565 1230 710 55 32 156 90 225 130 69 40 197 114 285 165 88 50
185 106 215 123 30 16 79 45 108 63 29 19 54 34 56 34 2 0 71 39 153 86 81 48
169 99 194 113 81 47 334 192 349 202 30 18 836 482 870 501 19 10 42 23 50
29 16 10 340 197 407 235 23 13 92 53 153 89 61 36 114 65 117 65 3 0 25 14
50 30 24 17 46 30 48 30 2 0 86 48 187 106 101 58 216 125 255 148 51 28 73
47 74 61 4 90 1 6934 -3 6941 -4 5 -130 9 -299 8 l-294 -1 -5 -22 c-3 -12 -3
-358 0 -769 l5 -747 105 0 c58 0 107 -3 110 -6 3 -4 5 -241 5 -526 l0 -518
-110 0 -110 0 -5 -2014 -5 -2015 -110 -64 c-60 -35 -135 -78 -165 -95 -30 -17
-84 -48 -119 -69 -34 -21 -65 -38 -67 -38 -3 0 -23 -11 -45 -26 -22 -14 -55
-33 -72 -43 -18 -10 -135 -78 -262 -151 -126 -73 -250 -144 -275 -158 -70 -39
-947 -546 -1250 -722 -63 -37 -279 -162 -480 -277 -201 -116 -381 -220 -400
-231 -19 -12 -46 -27 -60 -35 -74 -40 -704 -405 -758 -438 -35 -22 -65 -39
-67 -39 -2 0 -54 -29 -115 -65 -61 -36 -130 -76 -153 -89 -23 -13 -172 -99
-332 -191 -551 -319 -691 -399 -870 -503 -324 -188 -371 -214 -381 -215 -6 0
-116 61 -245 135 -129 75 -250 145 -269 155 -74 42 -500 289 -603 349 -59 35
-110 64 -113 64 -2 0 -21 11 -42 24 -52 33 -236 140 -242 141 -3 0 -16 8 -30
17 -14 8 -149 87 -300 173 -151 87 -295 170 -320 185 -39 24 -164 96 -290 167
-19 11 -249 144 -510 295 -618 358 -737 426 -785 453 -22 13 -209 121 -415
240 -206 120 -399 231 -428 248 -30 16 -97 55 -150 86 -54 31 -104 60 -112 64
-8 4 -31 17 -50 28 -38 23 -333 194 -390 226 -111 63 -686 396 -690 400 -7 6
-7 6903 0 6912 3 4 41 28 85 53 44 25 208 120 365 210 157 91 305 176 330 190
25 14 115 66 200 115 357 207 402 233 408 233 3 0 13 6 21 14 9 7 41 27 71 43
30 16 73 41 95 55 22 13 47 28 55 31 8 4 31 17 50 28 19 12 157 91 305 176
149 86 298 173 332 194 34 22 64 39 67 39 2 0 71 39 153 86 81 48 168 98 193
112 25 14 56 32 70 41 14 10 36 22 50 29 14 7 41 22 60 33 19 12 359 208 755
437 396 229 774 447 840 485 66 39 136 79 155 90 55 30 421 242 460 266 19 11
58 33 85 48 28 15 58 32 67 38 9 5 63 37 120 70 57 33 112 65 123 72 11 7 27
15 35 19 8 4 67 38 130 75 63 37 157 91 209 122 l95 55 85 -51 c73 -43 583
-338 691 -399 166 -95 321 -184 350 -203 30 -19 70 -42 237 -136 18 -11 48
-27 66 -38 306 -177 446 -258 562 -326 77 -44 147 -84 155 -88 8 -5 24 -13 35
-20 21 -13 227 -132 285 -165 58 -32 854 -492 870 -502 18 -11 191 -111 450
-260 107 -62 238 -138 290 -168 52 -30 113 -65 135 -77 22 -12 70 -41 108 -63
37 -23 69 -42 71 -42 3 0 40 -21 83 -46 43 -26 96 -57 118 -69 22 -13 139 -80
260 -150 121 -70 238 -138 260 -150 22 -12 75 -43 118 -69 43 -25 81 -46 83
-46 2 0 4 156 4 348 0 320 -1 348 -17 358 -10 6 -38 22 -63 36 -25 14 -68 39
-96 55 -27 17 -70 41 -95 55 -24 14 -118 68 -209 120 -91 53 -181 105 -200
115 -19 11 -132 76 -250 145 -118 69 -235 136 -260 150 -25 14 -187 108 -360
208 -173 101 -340 196 -370 213 -30 16 -59 33 -65 37 -5 4 -26 17 -45 27 -19
11 -224 129 -455 263 -231 134 -440 254 -465 268 -25 14 -57 33 -72 43 -14 11
-29 19 -32 19 -3 0 -69 38 -148 84 -149 87 -458 265 -518 299 -109 61 -198
113 -220 127 -14 9 -50 30 -80 47 -30 17 -197 112 -370 213 -173 101 -333 193
-355 205 -22 13 -96 56 -165 95 -127 74 -309 178 -368 212 -36 20 -53 22 -67
9z"/>
<path d="M9465 18912 c-55 -32 -190 -110 -300 -174 -394 -227 -590 -341 -620
-359 -16 -10 -46 -26 -65 -37 -19 -11 -134 -77 -255 -147 -121 -70 -236 -137
-255 -148 -19 -10 -136 -78 -260 -150 -124 -71 -245 -141 -269 -155 -24 -13
-157 -90 -295 -170 -138 -80 -350 -202 -471 -272 -121 -69 -305 -176 -410
-237 -104 -60 -210 -121 -235 -135 -25 -14 -115 -66 -200 -115 -143 -83 -896
-518 -1190 -688 -69 -39 -201 -116 -295 -170 -93 -54 -181 -105 -195 -112 -14
-8 -45 -26 -71 -41 -25 -15 -79 -46 -120 -70 l-74 -43 0 -570 c0 -313 3 -569
8 -569 8 0 63 30 276 154 74 43 150 87 168 97 18 10 119 69 225 130 106 61
212 122 235 135 23 13 93 54 155 90 62 37 133 78 158 92 78 44 682 393 740
427 30 18 71 42 90 53 57 32 360 206 600 345 124 72 236 137 250 144 14 8 46
26 71 41 25 15 111 64 190 110 79 46 151 88 159 93 8 5 71 41 140 81 271 155
380 218 505 290 193 111 498 288 515 298 13 8 170 98 527 304 72 41 73 41 66
76 -32 165 40 337 179 430 301 201 699 -29 672 -388 -20 -250 -267 -436 -513
-386 -65 13 -149 54 -191 92 -14 12 -27 22 -30 22 -3 0 -100 -55 -215 -121
-116 -67 -226 -130 -245 -141 -19 -11 -124 -72 -233 -135 -110 -63 -213 -123
-230 -133 -18 -10 -131 -75 -252 -145 -121 -70 -236 -136 -255 -147 -19 -11
-75 -44 -125 -73 -49 -29 -110 -63 -135 -77 -25 -14 -101 -58 -170 -98 -68
-40 -138 -81 -155 -90 -16 -10 -70 -41 -120 -70 -49 -29 -110 -64 -135 -78
-25 -13 -70 -39 -100 -57 -30 -18 -116 -68 -190 -110 -260 -150 -395 -228
-425 -245 -16 -9 -75 -43 -130 -75 -102 -60 -195 -113 -252 -146 -18 -10 -119
-69 -225 -130 -106 -61 -209 -121 -228 -131 -19 -11 -150 -87 -290 -168 -476
-275 -595 -344 -623 -359 -16 -9 -36 -20 -45 -26 -10 -5 -106 -61 -215 -124
-108 -62 -198 -116 -198 -120 -3 -14 -4 -891 -1 -891 5 0 92 49 255 144 82 47
151 86 154 86 4 0 14 6 22 14 9 7 43 28 76 46 33 17 65 35 70 40 6 4 30 19 55
32 63 35 551 317 690 398 63 37 135 78 160 92 25 14 99 57 165 95 164 96 311
181 365 211 59 33 401 230 420 242 8 5 38 22 65 38 28 16 111 64 185 107 124
72 254 147 485 280 50 29 149 86 222 128 72 42 149 86 170 98 21 12 90 52 153
89 63 37 266 154 450 260 184 106 349 201 365 211 17 11 36 22 43 25 7 4 124
71 260 150 218 126 247 145 245 166 -13 134 -4 197 41 286 103 203 355 290
561 193 273 -129 334 -481 121 -693 -151 -150 -387 -166 -557 -38 l-50 38
-172 -100 c-95 -55 -188 -109 -207 -119 -19 -11 -51 -29 -70 -40 -29 -17
-1146 -663 -1245 -719 -16 -10 -145 -84 -285 -165 -140 -81 -271 -157 -290
-168 -19 -10 -109 -62 -200 -115 -91 -52 -192 -111 -225 -130 -33 -19 -80 -46
-105 -60 -25 -14 -57 -33 -72 -43 -14 -11 -28 -19 -31 -19 -2 0 -157 -88 -343
-196 -186 -108 -357 -207 -379 -219 -22 -13 -240 -139 -485 -280 -245 -142
-461 -266 -480 -277 -19 -11 -64 -37 -100 -58 -36 -21 -84 -48 -106 -61 -23
-13 -122 -70 -221 -127 l-178 -103 1 -447 c1 -246 2 -448 3 -449 0 -1 79 44
174 99 94 55 190 111 212 123 139 79 222 126 235 134 22 14 495 287 705 408
99 57 187 108 195 113 8 6 22 13 30 17 8 4 32 17 53 31 22 13 58 34 80 47 23
13 227 130 452 260 226 131 424 246 442 256 17 10 139 80 270 155 131 75 351
202 488 281 138 79 257 148 265 153 8 5 38 22 66 39 48 28 66 56 80 128 14 74
177 378 268 500 20 27 39 53 43 58 129 175 371 387 578 508 144 84 364 181
460 202 17 4 37 9 45 12 20 8 24 9 110 28 156 34 263 43 465 40 210 -3 214 -3
371 -35 767 -154 1385 -734 1588 -1490 26 -98 30 -114 46 -215 27 -175 30
-459 6 -591 -2 -10 -7 -39 -11 -64 -13 -79 -15 -86 -40 -185 -52 -199 -134
-386 -258 -590 -45 -75 -167 -225 -250 -310 l-98 -100 16 -120 c9 -66 18 -131
20 -145 2 -14 13 -86 24 -160 11 -74 23 -151 26 -170 2 -19 12 -82 20 -140 9
-58 17 -116 20 -130 2 -14 9 -61 15 -105 7 -44 13 -87 15 -95 4 -23 28 -180
39 -260 4 -25 9 -57 11 -71 3 -15 7 -47 10 -70 3 -24 10 -71 15 -104 5 -33 12
-78 15 -100 4 -22 8 -51 10 -65 3 -14 7 -41 10 -60 2 -19 12 -82 21 -140 8
-58 19 -132 24 -165 13 -87 21 -137 25 -165 3 -14 9 -56 15 -95 5 -38 12 -81
14 -95 3 -14 7 -45 10 -70 3 -25 8 -54 10 -65 2 -11 7 -42 10 -70 4 -27 9 -57
11 -65 2 -8 6 -37 10 -65 3 -27 12 -90 20 -140 7 -49 16 -106 19 -125 2 -19
10 -72 16 -117 7 -46 11 -86 9 -90 -4 -7 -3726 -9 -3734 -2 -3 4 5 70 30 229
12 82 18 117 20 130 1 8 6 40 10 70 4 30 9 62 10 70 1 8 6 40 11 70 4 30 8 57
9 60 1 3 5 30 9 60 5 30 10 62 11 71 2 9 6 40 10 69 4 29 9 62 11 74 2 11 6
38 9 61 4 22 8 51 10 65 2 14 6 45 10 70 3 25 8 56 10 70 3 14 7 39 9 55 7 50
18 119 22 139 2 10 6 44 10 75 3 31 8 58 9 61 2 3 7 33 10 65 4 33 9 62 10 65
2 3 6 30 10 60 7 59 10 84 25 170 5 30 11 75 14 100 4 25 8 54 10 65 2 11 7
43 10 70 4 28 9 61 11 75 16 103 25 162 31 205 3 28 7 52 9 55 2 3 6 34 10 70
4 36 8 67 10 70 2 3 8 42 14 86 7 44 13 89 15 100 2 10 7 42 10 69 4 28 11 75
16 105 5 30 12 75 15 100 10 72 16 103 21 112 9 15 -21 8 -55 -13 -34 -21
-519 -300 -601 -347 -25 -14 -76 -44 -115 -67 -38 -22 -77 -44 -85 -48 -8 -4
-28 -15 -45 -26 -25 -15 -167 -98 -330 -191 -16 -10 -133 -77 -260 -150 -126
-73 -243 -141 -260 -150 -45 -26 -388 -225 -570 -330 -176 -102 -202 -117
-290 -167 -33 -19 -67 -38 -75 -43 -25 -16 -214 -126 -230 -133 -8 -4 -24 -13
-35 -20 -11 -7 -54 -31 -95 -55 -41 -24 -91 -52 -110 -63 -19 -12 -172 -100
-340 -196 -168 -97 -317 -184 -332 -194 -15 -11 -29 -19 -31 -19 -5 0 -169
-94 -342 -195 l-90 -53 0 -270 c0 -149 2 -273 5 -275 3 -3 109 -64 235 -137
127 -72 259 -149 295 -170 206 -120 287 -167 300 -173 8 -4 29 -15 45 -26 17
-10 163 -94 325 -188 162 -94 500 -288 750 -433 250 -144 480 -277 510 -295
30 -18 75 -44 100 -57 25 -14 160 -92 300 -173 334 -193 601 -348 725 -419 55
-32 107 -61 115 -66 8 -5 53 -32 100 -59 47 -26 231 -133 410 -236 611 -353
859 -496 1265 -729 94 -54 174 -102 179 -107 18 -16 38 -10 120 38 45 26 135
78 201 116 66 38 194 112 285 165 91 52 181 104 200 115 19 11 87 50 150 87
63 37 207 120 320 185 113 65 221 127 241 139 20 12 118 68 218 126 100 58
194 112 209 121 15 9 74 43 132 76 117 67 399 230 530 306 47 27 110 63 140
80 30 16 62 36 71 43 8 8 19 14 22 14 4 0 37 18 73 40 36 22 67 40 69 40 2 0
48 26 102 58 54 32 105 61 113 65 8 4 30 16 48 27 34 21 341 198 402 232 19
11 40 24 45 28 6 4 31 19 57 33 26 15 224 129 440 254 570 329 698 402 748
431 25 13 70 39 100 57 30 18 174 102 320 185 146 84 282 163 302 176 21 13
42 24 48 24 5 0 10 6 11 13 4 72 1 3836 -4 3843 -3 5 -118 9 -261 9 -163 0
-257 4 -259 10 -2 5 -3 242 -3 525 l1 515 257 0 c141 0 260 3 264 7 9 9 9
1516 0 1525 -4 4 -87 6 -186 6 l-180 -1 0 172 0 172 -37 21 c-45 24 -75 41
-208 118 -55 32 -113 65 -130 75 -16 9 -75 43 -130 75 -55 32 -120 69 -145 83
-25 13 -49 28 -55 32 -5 4 -30 19 -55 32 -46 26 -238 137 -520 301 -85 49
-175 101 -200 115 -25 14 -142 81 -260 150 -118 69 -240 139 -270 155 -30 16
-59 33 -65 38 -5 4 -55 33 -110 64 -141 81 -152 87 -330 190 -88 51 -176 102
-195 112 -19 11 -132 76 -250 145 -118 68 -271 157 -340 197 -69 40 -132 76
-140 81 -16 10 -431 249 -488 282 -18 10 -93 53 -165 95 -73 42 -145 84 -162
93 -16 9 -65 38 -108 64 -43 25 -80 46 -81 46 -2 0 -92 52 -201 115 -108 63
-198 115 -200 115 -1 0 -65 37 -141 81 -76 45 -159 93 -183 107 -25 14 -67 38
-93 53 -27 16 -52 29 -56 29 -4 0 -52 -27 -107 -58z m5236 -3747 c0 -29 1
-1056 0 -1081 l-1 -21 -557 1 -558 1 -1 555 c-1 305 2 557 6 560 5 3 256 5
559 5 544 0 551 0 552 -20z"/>
<path d="M17419 18195 c-1 -26 -1 -538 0 -546 1 -3 129 -6 286 -6 l285 0 0
286 0 286 -285 0 c-278 0 -285 0 -286 -20z"/>
<path d="M15260 17492 l0 -537 535 0 535 0 1 30 c0 40 0 948 0 1003 l-1 42
-535 0 -535 0 0 -538z"/>
<path d="M9328 17787 c-51 -12 -113 -69 -133 -122 -25 -63 -17 -142 20 -194
40 -59 119 -95 188 -88 103 10 177 83 185 181 12 152 -112 259 -260 223z"/>
<path d="M18250 16702 c-6 -2 -10 -142 -10 -392 l0 -388 388 0 389 1 0 388 c0
349 -2 389 -16 390 -54 3 -743 3 -751 1z"/>
<path d="M9304 16624 c-73 -30 -126 -113 -125 -196 0 -167 205 -263 334 -157
129 106 93 306 -65 358 -43 14 -102 12 -144 -5z"/>
<path d="M16330 15777 l0 -537 537 2 538 3 0 533 c0 292 -2 533 -5 533 -3 1
-245 2 -537 3 l-533 1 0 -538z"/>
<path d="M9517 15384 c-1 -1 -38 -4 -82 -8 -90 -7 -111 -10 -210 -32 -668
-146 -1169 -700 -1254 -1384 -9 -74 -7 -345 3 -407 50 -311 151 -546 331 -778
81 -104 200 -221 292 -288 l73 -52 -6 -45 c-7 -58 -14 -109 -20 -140 -2 -14
-11 -72 -19 -130 -9 -58 -18 -116 -20 -130 -2 -14 -7 -43 -9 -65 -3 -22 -7
-49 -10 -60 -2 -11 -7 -45 -11 -75 -4 -30 -9 -64 -11 -75 -4 -20 -12 -74 -20
-135 -3 -19 -7 -46 -9 -60 -2 -14 -7 -43 -10 -65 -3 -23 -7 -52 -10 -65 -2
-13 -9 -58 -15 -100 -6 -42 -12 -85 -14 -96 -2 -10 -7 -39 -10 -64 -3 -25 -8
-54 -10 -65 -4 -22 -14 -92 -21 -145 -2 -19 -20 -136 -39 -260 -19 -124 -38
-245 -41 -270 -3 -25 -8 -58 -11 -75 -3 -16 -7 -41 -9 -55 -10 -76 -16 -118
-21 -140 -2 -14 -6 -38 -8 -55 -6 -44 -16 -115 -22 -150 -3 -16 -7 -45 -10
-64 -2 -19 -6 -46 -9 -60 -5 -30 -21 -134 -30 -201 -19 -126 -22 -155 -20
-160 6 -10 2700 -4 2698 5 -1 6 -4 30 -8 55 -3 25 -8 56 -10 70 -5 37 -17 113
-20 130 -2 8 -6 38 -9 65 -4 28 -9 62 -11 78 -10 58 -14 84 -20 127 -4 25 -17
115 -30 200 -13 85 -26 175 -30 200 -3 25 -12 86 -20 135 -8 50 -19 124 -25
165 -7 41 -13 86 -15 100 -9 55 -34 228 -40 270 -3 25 -8 52 -10 60 -2 8 -6
38 -10 65 -3 28 -10 75 -15 105 -5 30 -12 75 -15 100 -3 25 -10 70 -15 100 -5
30 -12 75 -15 100 -11 79 -22 154 -50 330 -2 14 -7 45 -10 70 -3 25 -12 86
-20 135 -13 85 -16 105 -30 200 -4 22 -8 53 -11 68 -3 16 -5 32 -5 35 -4 27 8
43 56 79 189 138 348 324 460 537 131 246 188 476 189 756 0 158 -11 251 -51
405 -95 374 -339 718 -660 933 -176 119 -439 226 -608 248 -27 3 -53 8 -57 10
-10 7 -284 23 -291 18z m208 -699 c301 -59 530 -225 672 -486 19 -35 36 -68
38 -74 1 -5 5 -19 9 -30 22 -59 27 -72 32 -95 63 -292 19 -536 -139 -767 -87
-128 -246 -262 -374 -315 -39 -16 -53 -27 -54 -42 0 -12 0 -600 -1 -1308 l0
-1288 -334 0 c-260 0 -334 3 -335 13 0 6 -1 596 -1 1310 -1 824 -5 1297 -11
1297 -5 0 -37 14 -70 31 -227 115 -397 313 -471 547 -36 116 -38 123 -41 263
-4 137 12 238 56 354 116 309 397 537 727 589 76 12 238 13 297 1z"/>
<path d="M17169 14215 c0 -11 0 -252 -1 -535 l0 -515 536 -3 c425 -2 536 0
537 10 1 17 1 1028 0 1048 -1 13 -68 15 -536 15 -529 0 -535 0 -536 -20z"/>
<path d="M7300 13944 c-129 -74 -253 -146 -275 -158 -69 -40 -307 -177 -470
-271 -55 -32 -233 -134 -395 -228 -162 -93 -349 -202 -415 -241 -66 -39 -122
-71 -125 -71 -3 0 -16 -8 -30 -17 -23 -14 -110 -65 -200 -115 -19 -11 -91 -53
-160 -93 -68 -40 -140 -82 -160 -93 -19 -10 -152 -87 -295 -170 -143 -83 -359
-207 -480 -277 -121 -70 -263 -152 -315 -182 l-95 -55 -1 -439 c0 -242 1 -442
4 -447 4 -8 78 31 222 118 51 30 94 55 95 55 1 0 54 30 116 66 63 37 130 76
149 86 33 19 138 80 170 98 15 9 105 61 205 118 28 16 196 114 375 217 179
104 366 212 415 240 196 112 570 328 641 370 42 25 77 45 79 45 2 0 47 26 102
58 54 32 118 70 143 84 25 14 160 92 300 173 140 81 344 199 454 262 109 63
207 119 217 126 13 8 18 19 14 32 -18 61 -56 260 -62 325 -14 141 -6 439 13
503 3 9 4 17 2 17 -2 0 -109 -61 -238 -136z"/>
<path d="M7585 12956 c-27 -18 -75 -46 -105 -63 -30 -16 -194 -111 -365 -210
-170 -99 -330 -191 -355 -205 -25 -14 -160 -92 -300 -173 -140 -81 -313 -181
-385 -222 -71 -41 -211 -122 -310 -179 -99 -58 -244 -142 -323 -187 -79 -45
-157 -90 -175 -101 -18 -10 -102 -58 -187 -107 -85 -49 -162 -94 -170 -99 -8
-5 -44 -26 -80 -46 -36 -21 -202 -117 -370 -214 -168 -97 -366 -211 -440 -254
l-135 -78 1 -436 c1 -241 2 -442 3 -449 0 -7 50 17 114 54 61 36 133 78 158
92 55 32 328 189 349 201 118 70 153 90 155 90 2 0 38 20 79 45 42 25 81 45
86 45 6 0 10 5 10 10 0 6 4 10 9 10 5 0 55 27 111 60 56 33 103 60 104 60 4 0
325 186 346 200 8 6 22 13 30 17 8 3 39 21 68 40 29 18 54 33 56 33 3 0 37 19
78 43 40 24 93 55 118 69 66 37 861 496 1140 658 69 40 169 98 223 129 54 31
113 64 130 75 73 42 415 240 457 264 41 23 172 99 260 151 19 11 50 28 68 37
18 9 35 20 37 25 3 4 -33 54 -80 110 -77 92 -135 172 -175 240 -49 85 -111
201 -130 247 -14 33 -28 52 -39 51 -9 0 -38 -15 -66 -33z"/>
<path d="M5626 3152 c-59 -19 -146 -99 -172 -158 -23 -53 -27 -162 -7 -220 22
-65 115 -158 174 -175 73 -21 177 -17 226 9 66 34 110 78 140 140 36 74 38
184 5 249 -71 138 -222 202 -366 155z"/>
<path d="M8706 3091 c-2 -3 -4 -691 -4 -1528 1 -1115 4 -1523 12 -1524 15 -1
418 -1 436 0 13 1 15 41 15 307 0 168 3 310 6 315 10 17 322 329 328 329 3 0
47 -62 98 -138 141 -211 422 -625 436 -643 14 -19 28 -39 65 -97 15 -24 32
-51 38 -59 9 -13 51 -15 290 -15 293 -1 296 0 260 42 -7 8 -96 139 -198 290
-207 308 -315 467 -526 778 l-144 214 49 51 c28 29 95 99 150 157 260 272 561
587 601 627 31 32 32 33 10 34 -13 0 -148 0 -301 0 l-277 0 -26 -28 c-14 -15
-98 -104 -187 -197 -89 -93 -182 -190 -207 -216 -25 -26 -119 -125 -210 -220
-91 -95 -184 -193 -207 -217 -24 -24 -44 -41 -44 -36 -1 4 -2 406 -3 893 l-1
885 -228 1 c-125 1 -229 -1 -231 -5z"/>
<path d="M11851 2979 c-25 -5 -62 -11 -84 -14 -70 -11 -219 -65 -306 -111
-289 -153 -423 -385 -416 -722 6 -293 106 -479 338 -630 137 -89 290 -145 636
-233 408 -105 534 -167 598 -297 36 -74 41 -181 12 -259 -44 -114 -168 -206
-324 -239 -16 -3 -87 -7 -157 -8 -120 -2 -158 2 -327 40 -45 9 -183 66 -250
102 -97 52 -166 97 -258 168 l-82 64 -143 -172 c-79 -94 -147 -178 -152 -186
-10 -17 -10 -16 131 -123 312 -236 655 -350 1053 -352 349 -2 609 90 808 285
168 164 238 353 228 610 -12 284 -109 460 -331 602 -160 103 -291 153 -630
241 -407 105 -549 176 -612 303 -25 50 -28 68 -27 147 0 76 4 98 26 140 40 77
102 127 202 164 82 30 122 36 261 35 139 0 185 -6 315 -39 157 -40 321 -115
412 -187 22 -17 43 -27 47 -22 5 5 64 87 130 182 95 135 120 176 111 187 -23
28 -181 127 -271 169 -160 76 -294 115 -529 155 -66 12 -347 11 -409 0z"/>
<path d="M1009 2895 c0 -38 0 -2836 0 -2850 1 -18 1509 -9 1540 9 3 2 27 7 53
10 186 25 391 123 502 241 79 84 175 269 192 372 4 21 8 90 9 153 5 182 -34
310 -131 435 -97 123 -194 190 -358 246 l-80 27 65 31 c246 123 352 308 345
606 -3 90 -9 137 -26 190 -49 154 -153 304 -265 381 -101 68 -257 127 -400
150 -20 3 -47 7 -58 10 -63 12 -302 17 -815 18 l-572 1 -1 -30z m1306 -439
c200 -46 287 -123 316 -284 32 -168 -29 -311 -159 -376 -126 -63 -179 -69
-626 -70 l-348 -1 0 350 c0 193 1 360 1 373 l1 24 393 -5 c215 -2 406 -7 422
-11z m60 -1189 c11 -3 40 -9 65 -12 61 -9 168 -47 216 -78 52 -32 102 -90 128
-146 30 -67 29 -232 -3 -313 -42 -107 -125 -169 -278 -205 -56 -14 -148 -17
-535 -20 -447 -4 -468 -3 -469 14 -4 84 0 753 4 760 6 10 840 10 872 0z"/>
<path d="M4910 2254 c-36 -7 -84 -19 -108 -28 -54 -19 -167 -79 -207 -109 -60
-44 -211 -205 -240 -255 -16 -28 -32 -52 -35 -52 -3 0 -5 95 -5 210 l0 210
-35 1 c-38 1 -345 1 -398 0 l-32 -1 1 -1095 1 -1095 27 -1 c126 -4 423 0 429
5 4 4 7 238 8 519 1 546 3 584 35 715 52 212 167 371 323 447 104 51 185 69
339 74 16 1 17 17 13 234 -2 127 -4 232 -5 233 -7 3 -60 -2 -111 -12z"/>
<path d="M7192 2249 c-264 -45 -466 -171 -567 -354 -53 -96 -66 -149 -70 -283
-7 -213 95 -372 321 -498 91 -51 182 -87 354 -141 200 -62 287 -97 361 -144
117 -76 148 -139 118 -240 -18 -58 -63 -105 -137 -141 -62 -31 -74 -33 -182
-35 -218 -4 -433 68 -659 222 -79 54 -84 55 -102 39 -10 -9 -19 -22 -19 -27 0
-6 -11 -25 -25 -43 -14 -18 -25 -35 -25 -38 0 -2 -18 -32 -40 -65 -22 -33 -40
-62 -40 -65 0 -3 -14 -26 -32 -52 l-31 -47 24 -18 c142 -112 378 -222 564
-264 6 -2 28 -8 50 -13 22 -6 60 -14 84 -17 23 -3 57 -8 75 -11 39 -8 280 -8
321 0 95 18 126 26 200 54 107 39 182 88 265 171 131 131 182 269 176 476 -2
61 -6 123 -10 138 -23 97 -78 193 -145 256 -42 40 -157 110 -246 152 -77 35
-296 113 -348 123 -127 25 -308 86 -364 123 -81 53 -82 206 -1 279 95 87 310
113 533 64 101 -22 231 -75 322 -131 30 -19 32 -19 41 -2 6 10 45 87 88 170
75 148 77 153 58 167 -43 32 -152 88 -244 125 -85 34 -129 47 -230 66 -128 24
-309 26 -438 4z"/>
<path d="M14525 2259 c-22 -4 -56 -9 -75 -12 -132 -19 -280 -78 -410 -163
-247 -162 -403 -389 -462 -674 -31 -150 -30 -415 3 -556 6 -27 13 -59 15 -72
8 -42 53 -153 90 -220 116 -216 326 -396 569 -487 177 -67 435 -87 660 -50
130 21 330 90 397 136 14 11 29 19 32 19 28 0 238 176 234 196 -2 7 -43 57
-93 111 -49 54 -106 115 -125 136 l-35 39 -60 -57 c-74 -70 -174 -127 -280
-160 -103 -31 -164 -39 -301 -38 -252 2 -483 118 -597 299 -29 47 -67 158 -67
196 0 24 4 28 28 29 15 0 399 0 854 1 611 0 828 3 831 12 10 30 -2 438 -16
516 -49 276 -191 485 -432 638 -70 44 -229 112 -300 129 -144 33 -364 48 -460
32z m326 -413 c218 -60 362 -203 404 -403 21 -96 20 -143 -2 -144 -22 -1
-1213 -1 -1230 0 -7 1 -11 7 -8 14 2 6 6 35 8 62 11 111 61 210 147 294 96 93
226 160 359 185 84 17 249 13 322 -8z"/>
<path d="M17177 2264 c-1 -1 -31 -5 -66 -8 -135 -14 -303 -65 -419 -127 -347
-186 -556 -493 -589 -864 -11 -122 -6 -283 11 -371 65 -329 242 -573 546 -752
94 -55 274 -113 402 -129 63 -7 271 -7 313 1 17 3 56 11 88 16 204 38 435 158
604 315 68 62 71 67 55 84 -27 28 -197 213 -227 248 l-28 32 -59 -54 c-116
-104 -228 -168 -360 -205 -105 -29 -282 -23 -393 13 -217 71 -392 247 -462
464 -33 103 -42 265 -19 373 81 390 524 629 920 496 104 -35 246 -117 320
-185 l28 -26 32 39 c17 21 77 95 134 164 57 69 102 130 100 137 -4 17 -97 97
-165 143 -92 62 -169 101 -262 132 -92 31 -109 34 -231 55 -38 7 -267 14 -273
9z"/>
<path d="M5489 2185 c0 -63 0 -2127 0 -2140 1 -11 446 -13 457 -2 8 8 9 2175
1 2183 -3 4 -107 7 -231 8 l-226 1 -1 -50z"/>
</g>
</svg>
